<svg width="90" height="90" viewBox="0 0 90 90" fill="none" xmlns="http://www.w3.org/2000/svg">
<path fill-rule="evenodd" clip-rule="evenodd" d="M89.8521 62.5C89.8521 77.5 77.6021 89.4999 62.8521 89.4999H27.1021C12.3522 89.4999 0.102112 77.5 0.102112 62.5V27C0.102112 12 12.3522 0 27.1021 0H62.8521C77.6021 0 89.8521 12 89.8521 27V62.5ZM81.3521 27C81.3521 16.75 73.1021 8.24997 62.8521 8.24997H27.1021C16.8522 8.24997 8.60217 16.75 8.60217 27V62.5C8.60217 72.75 16.8522 80.9999 27.1021 80.9999H62.8521C73.1021 80.9999 81.3521 72.75 81.3521 62.5V27ZM67.3521 45.4999C67.3521 57.4999 57.3521 67.5 45.1021 67.5C32.8521 67.5 23.1021 57.4999 23.1021 45.4999C23.1021 33.2499 32.8521 23.25 45.1021 23.25C57.3521 23.25 67.3521 33.2499 67.3521 45.4999ZM73.8521 21.7499C73.8521 24.7499 71.3521 27 68.6021 27C65.6022 27 63.3521 24.7499 63.3521 21.7499C63.3521 18.7499 65.6022 16.4999 68.6021 16.4999C71.3521 16.4999 73.8521 18.7499 73.8521 21.7499ZM59.3521 45.4999C59.3521 37.4999 52.8521 31.25 45.1021 31.25C37.3521 31.25 30.8521 37.4999 30.8521 45.4999C30.8521 53.2499 37.3521 59.5 45.1021 59.5C52.8521 59.5 59.3521 53.2499 59.3521 45.4999Z" fill="#2C2C2A"/>
</svg>
