<svg width="94" height="89" viewBox="0 0 94 89" fill="none" xmlns="http://www.w3.org/2000/svg">
<path d="M0 69.5698C0 69.0698 0 68.5697 0 68.0697C0.5 67.3197 1.24998 66.8198 2.24998 66.5698C9.99998 65.0698 15 60.0697 19 53.5697C22.25 48.3197 21.75 47.0697 15.75 44.8197C15.4167 44.6531 15.0833 44.5698 14.75 44.5698C13.25 44.0698 12 43.3197 11 42.3197C8.24998 40.0697 9.99999 36.8197 13 36.0697C15.5 35.3197 17.5 36.8198 19.75 37.0698C21.25 37.3198 21.75 36.8198 21.75 35.3198C21.25 31.0698 21.25 26.8198 21.25 22.8198C21.75 14.8198 25.75 8.81973 32.25 4.81973C41.75 -0.930267 52 -0.930267 61.75 4.81973C67.75 8.31973 71.75 13.8197 72.5 21.0697C73 25.5697 72.75 30.3197 72.5 35.0697C72.25 37.0697 72.75 37.5698 74.75 37.0698C77.25 36.3198 79.25 35.0697 82 36.3197C83.25 36.8197 84.5 38.3197 84.5 39.8197C84.5 40.8197 83.75 41.8197 83 42.3197C82 43.5697 80.25 44.0698 78.75 44.5698C77.75 45.0698 76.5 45.5697 75.5 46.0697C73.25 47.0697 72.5 48.5698 73.5 50.8198C77.25 58.5698 82.75 64.3198 91.5 66.5698C92.5 66.8198 93.5 67.0697 94 68.0697C94 68.5697 94 69.0698 94 69.5698C93.25 71.3198 91.75 72.0698 90 72.8198C88.25 73.3198 86.5 74.0697 84.75 74.3197C82.25 74.5697 80.75 75.5698 80.5 78.3198C80 80.8198 79.25 81.0698 76.75 80.8198C76.25 80.8198 75.6667 80.7364 75 80.5697C70 79.8197 65.25 80.3197 61 83.5697C60.25 84.3197 59.5 84.8198 58.5 85.3198C51.5 89.8198 44.25 90.3197 37 86.0697C35 85.0697 33 83.5697 31 82.3197C29.5 81.3197 27.75 80.5698 25.75 80.3198C22.75 79.8198 19.75 80.5697 16.75 81.0697C15.25 81.0697 13.75 80.5698 13.75 79.0698C13.5 75.3198 11.25 74.3198 7.99999 74.0698C6.49999 73.8198 5 73.3197 3.75 72.5697C2.25 72.0697 0.75 71.0698 0 69.5698Z" fill="#2C2C2A"/>
</svg>
