<svg width="41" height="87" viewBox="0 0 41 87" fill="none" xmlns="http://www.w3.org/2000/svg">
<path d="M9.10211 43.5H1.3521C0.852097 43.5 0.352112 43 0.352112 42.5V29.75C0.352112 29 0.852097 28.5 1.3521 28.5H9.10211V16.25C9.10211 7.74997 16.1021 0.749939 24.6021 0.749939H39.1021C39.6021 0.749939 40.1021 1.24994 40.1021 1.99994V14.75C40.1021 15.25 39.6021 15.7499 39.1021 15.7499H30.6021C28.3521 15.7499 26.6021 17.4999 26.6021 19.4999V28.5H38.8521C39.6021 28.5 40.1021 29.25 40.1021 29.75L38.8521 42.5C38.8521 43 38.3521 43.5 37.8521 43.5H26.6021V85.75C26.6021 86.25 26.1021 86.75 25.6021 86.75H10.1021C9.6021 86.75 9.10211 86.25 9.10211 85.75V44.25V43.5Z" fill="#2C2C2A"/>
</svg>
