<svg width="87" height="88" viewBox="0 0 87 88" fill="none" xmlns="http://www.w3.org/2000/svg">
<path fill-rule="evenodd" clip-rule="evenodd" d="M86.5401 39.6424C89.0401 66.6417 66.5407 89.1413 39.5413 86.8913C18.7918 84.8914 2.04221 68.3917 0.292252 47.6422C-2.20769 20.6429 20.2917 -1.85652 47.2911 0.643418C68.0406 2.39338 84.7902 19.1429 86.5401 39.6424ZM70.7906 22.3929C65.5407 27.6428 59.2908 31.8927 52.791 34.8926C52.541 34.8926 52.2909 35.3926 52.5409 35.6426C53.3742 37.4759 54.2075 39.3092 55.0408 41.1425C55.0408 41.3925 55.2908 41.6425 55.5408 41.6425C62.7073 40.6425 70.2071 40.8925 78.0403 42.3924C78.5403 42.6424 79.0403 42.1424 79.0403 41.8924C78.5403 34.6426 76.0403 27.8928 71.7904 22.3929C71.5405 22.1429 71.0406 21.8929 70.7906 22.3929ZM65.5406 15.893C59.2907 10.8931 51.791 8.14323 43.2912 8.14323C41.2913 8.14323 39.208 8.30993 37.0414 8.64325C36.5414 8.64325 36.5413 9.39314 36.7913 9.64314C40.0412 13.893 44.2911 19.8929 48.541 27.6427C48.541 27.8927 49.041 28.1428 49.291 27.8928C55.2908 25.3929 60.7907 21.6429 65.5406 16.893C65.7906 16.393 65.7906 15.893 65.5406 15.893ZM27.7916 11.6432C18.5418 16.1431 11.792 24.6428 9.04204 34.6425C8.79204 35.1425 9.292 35.3926 9.79199 35.3926C21.2917 34.8926 31.5414 33.8926 40.5412 31.1427C41.0412 31.1427 41.2912 30.6427 41.0412 30.1427C36.2913 21.6429 31.5415 15.3931 28.5415 11.8931C28.2915 11.6431 28.0416 11.6432 27.7916 11.6432ZM7.79207 43.8923C8.04206 52.3921 10.5419 60.6419 15.5418 65.8918C16.0418 66.3917 16.2918 66.3917 16.7918 65.8918C25.6249 54.7254 35.6247 47.309 46.7911 43.6424C47.291 43.6424 47.5411 43.1423 47.2911 42.6424C46.6244 41.1424 45.9578 39.7257 45.2912 38.3924C45.0412 38.1424 44.7912 37.8926 44.5412 37.8926C33.0415 41.6425 20.7917 42.8924 8.54202 43.1424C8.04203 43.1424 7.79207 43.3923 7.79207 43.8923ZM22.2917 72.3917C28.2915 76.6416 35.5414 79.3915 43.2912 79.3915C48.0411 79.3915 52.541 78.3915 56.5409 76.8916C56.7909 76.6416 57.0408 76.3916 56.7908 76.1416C55.5408 66.8918 53.2909 58.642 50.541 51.1422C50.541 50.8922 50.041 50.6421 49.791 50.8921C39.5413 53.8921 30.5415 60.8919 22.2917 71.3917C22.0417 71.6417 22.0417 72.1417 22.2917 72.3917ZM65.0406 71.8917C71.5404 66.8918 76.5404 59.392 78.2904 51.1422C78.2904 50.6422 78.0404 50.3922 77.7904 50.1422C70.9572 48.8089 64.6239 48.3922 58.7907 48.8922C58.2907 48.8922 58.0409 49.3923 58.2909 49.8922C60.5408 56.3921 62.5407 63.6419 64.0407 71.6417C64.0407 71.8917 64.5406 72.1417 65.0406 71.8917Z" fill="#2C2C2A"/>
</svg>
