<svg width="84" height="70" viewBox="0 0 84 70" fill="none" xmlns="http://www.w3.org/2000/svg">
<path d="M83.3521 8.64328C83.3521 8.89328 83.3521 9.39327 83.1021 9.89326C81.1021 12.6432 79.1022 14.8933 76.3523 16.8933C76.1023 17.1433 75.3523 17.3933 75.3523 18.1432C75.3523 31.893 71.8523 45.6428 61.8525 55.6426C48.8527 68.3924 29.853 71.8923 12.6033 67.1424C9.43672 66.1424 6.27007 64.8924 3.10345 63.3924C2.10347 62.7258 1.18688 62.1424 0.353559 61.6424C0.103564 61.3924 -0.146447 61.1425 0.103548 60.8925C0.353544 60.8925 0.353529 60.8925 1.10352 60.8925C5.85344 61.3925 10.8534 60.8924 15.3533 59.1425C17.8533 58.3925 23.1031 56.6425 24.6031 54.1425C24.7698 54.1425 24.8531 54.1425 24.8531 54.1425C24.1031 53.8925 23.6032 53.8926 22.8532 53.8926C18.3533 52.6426 12.1033 50.1426 9.35335 42.3927C9.18668 41.8927 9.35338 41.7262 9.85337 41.8928C13.6033 42.1428 14.8533 41.8927 16.3533 41.6428C15.52 41.4761 14.77 41.2261 14.1033 40.8928C8.10343 38.6428 3.85344 33.143 3.10345 26.8931C3.10345 26.1431 3.10345 25.643 3.10345 24.893C3.10345 24.393 3.27015 24.3097 3.60347 24.6431C6.60342 26.143 10.1034 26.3931 10.3534 26.3931C9.52007 25.7264 8.77002 25.1431 8.10337 24.6431C3.10345 19.6432 1.10355 9.89335 5.35347 3.89345C5.60347 3.39346 5.85344 3.39346 6.10343 3.89345C15.3533 14.3933 26.8531 19.3932 40.6028 21.3932C41.1028 21.3932 41.1028 21.3931 40.8528 20.8931C40.6028 18.6432 40.6028 16.1432 41.1028 13.8933C41.8528 11.3933 42.8528 8.8934 44.6028 6.89343C46.1027 5.14346 48.1028 3.39337 50.3527 2.39339C52.3527 1.14341 54.8526 0.39345 57.3526 0.39345C59.8525 0.143454 62.3525 0.643446 64.8524 1.64343C66.5191 2.31008 68.1024 3.3101 69.6023 4.64341C69.9357 4.81007 70.1857 5.06004 70.3524 5.39337C70.6857 5.56003 70.9357 5.64345 71.1023 5.64345C74.6023 4.81013 77.9356 3.47673 81.1022 1.64343C81.2688 1.64343 81.4355 1.64343 81.6022 1.64343C81.8522 1.89342 81.6022 2.14345 81.6022 2.14345C81.1022 4.14342 80.1022 5.64333 78.8522 7.3933C78.1022 8.39328 76.1022 10.6433 74.6023 10.8933C77.6022 10.3933 80.3521 9.64326 83.1021 8.64328C83.3521 8.39328 83.3521 8.39328 83.3521 8.64328Z" fill="#2C2C2A"/>
<path d="M27.6031 68.8925C27.6031 68.6425 29.103 68.8925 27.6031 68.8925V68.8925Z" fill="#2C2C2A"/>
<path d="M57.1025 0.393524C56.9359 0.560188 56.7692 0.560188 56.6026 0.393524C56.7692 0.393524 56.9359 0.393524 57.1025 0.393524Z" fill="#2C2C2A"/>
</svg>
