<svg width="87" height="53" viewBox="0 0 87 53" fill="none" xmlns="http://www.w3.org/2000/svg">
<path fill-rule="evenodd" clip-rule="evenodd" d="M86.1021 33.9956C85.8521 34.9956 85.1022 35.7455 84.1022 35.7455H61.3522C60.3522 35.7455 59.3522 36.7456 59.6022 37.7456C60.8522 44.9956 68.3522 44.4955 68.3522 44.4955C74.3522 44.4955 75.8522 41.9955 76.3522 40.4955C76.6022 39.7455 77.3523 39.2455 78.1023 39.2455H83.6021C84.8521 39.2455 85.6022 39.9955 85.3522 41.2455C83.8522 53.4955 68.1023 52.7456 68.1023 52.7456C47.3522 52.7456 48.6021 33.2455 48.6021 33.2455C48.6021 32.9955 48.6022 13.7455 68.1023 13.7455C85.1023 13.7455 86.1021 28.7456 86.1021 33.9956ZM74.8521 28.9956C75.6021 28.9956 76.1021 28.2456 76.1021 27.7456C75.6021 25.4956 74.3522 20.9956 68.3522 20.9956C62.6022 20.9956 60.3521 25.2455 59.8521 27.4955C59.6021 28.2455 60.1022 28.9956 60.8522 28.9956H74.8521ZM43.6021 36.4956C43.6021 52.2456 27.3521 51.7455 27.3521 51.7455H2.10217C1.35217 51.7455 0.852173 50.9956 0.852173 50.2456V1.99545C0.852173 1.24545 1.35217 0.745453 2.10217 0.745453H27.3521C35.3521 0.745453 41.6022 5.24552 41.6022 14.2455C41.6022 19.4955 39.1022 21.9955 36.8522 22.9955C36.3522 23.2455 36.3522 24.2455 37.1022 24.4955C44.1022 26.7455 43.6021 36.4956 43.6021 36.4956ZM12.3521 20.2456C12.3521 20.7456 12.8522 20.9956 13.3522 20.9956H26.3522C28.8522 20.9956 30.8522 20.2455 30.8522 14.9955C30.8522 9.74549 27.3521 9.74555 27.3521 9.74555H13.3522C12.8522 9.74555 12.3521 10.2455 12.3521 10.7455V20.2456ZM32.6022 35.9956C32.6022 28.9956 27.3521 28.9956 27.3521 28.9956H13.3522C12.8522 28.9956 12.3521 29.4955 12.3521 29.9955V41.7455C12.3521 42.2455 12.8522 42.7456 13.3522 42.7456H26.6021C28.6021 42.4956 32.6022 41.9956 32.6022 35.9956ZM57.8522 1.74551H77.1022C77.6022 1.74551 78.1023 2.24558 78.1023 2.74558V6.99545C78.1023 7.74545 77.6022 7.99552 77.1022 7.99552H57.8522C57.3522 7.99552 57.1022 7.74545 57.1022 6.99545V2.74558C57.1022 2.24558 57.3522 1.74551 57.8522 1.74551Z" fill="#2C2C2A"/>
</svg>
